<mxfile host="app.diagrams.net" modified="2023-07-04T09:12:51.791Z" agent="Mozilla/5.0 (X11; Linux x86_64) AppleWebKit/537.36 (KHTML, like Gecko) Chrome/113.0.0.0 Safari/537.36" version="21.5.2" etag="aKiZFVt0N1QwoKk7vssG" type="github">
  <diagram name="Page-1" id="zC66OcpA30GQdWOHHsNJ">
    <mxGraphModel>
      <root>
        <mxCell id="0" />
        <mxCell id="1" parent="0" />
      </root>
    </mxGraphModel>
  </diagram>
</mxfile>
